# xmcd
#
# Track frame offsets:
#	150
#	20317
#	41107
#	64990
#	94703
#	118807
#	142280
#	170157
#	188509
#	219476
#	246737
#	280957
#	304664
#
# Disc length: 4416 seconds
#
# Revision: 0
# Processed by: cddbd v1.4b42PL1 Copyright (c) Steve Scherf et al.
# Submitted via: EasyCDDAExtractor 4.5.0.2
#
DISCID=cc113e0d
DTITLE=Metallica - Reload
DYEAR=1900
DGENRE=Metal
TTITLE0=Fuel
TTITLE1=The Memory Remains
TTITLE2=Devil's Dance
TTITLE3=The Unforgiven Ii
TTITLE4=Better Than You
TTITLE5=Slither
TTITLE6=Carpe Diem Baby
TTITLE7=Bad Seed
TTITLE8=Where The Wild Things Are
TTITLE9=Prince Charming
TTITLE10=Low Man's Lyric
TTITLE11=Attitude
TTITLE12=Fixxxer
EXTD=123
EXTT0=
EXTT1=
EXTT2=
EXTT3=
EXTT4=
EXTT5=
EXTT6=
EXTT7=
EXTT8=
EXTT9=
EXTT10=
EXTT11=
EXTT12=
PLAYORDER=
